<?xml version="1.0" encoding="UTF-8" standalone="no"?>
<!-- Generator: Adobe Illustrator 27.5.0, SVG Export Plug-In . SVG Version: 6.00 Build 0)  -->

<svg
   version="1.1"
   x="0px"
   y="0px"
   viewBox="0 0 500 500"
   xml:space="preserve"
   id="svg10"
   width="500"
   height="500"
   xmlns="http://www.w3.org/2000/svg"
   xmlns:svg="http://www.w3.org/2000/svg"><defs
   id="defs10" />
<g
   id="g2"
   transform="matrix(0.5794253,0,0,0.5794253,-97.068222,-91.066535)">
		<path
   style="fill:#dcdce0"
   d="m 314.475,912.995 c -11.273,-9.901 -22.028,-20.378 -32.22,-31.383 -4.271,-4.614 -8.443,-9.32 -12.51,-14.12 -63.766,-75.201 -102.22,-172.541 -102.22,-278.863 0,-238.288 193.174,-431.462 431.462,-431.462 238.288,0 431.462,193.174 431.462,431.462 0,106.323 -38.455,203.662 -102.221,278.863 -4.067,4.8 -8.24,9.506 -12.51,14.12 -10.192,11.005 -20.947,21.482 -32.22,31.383 z"
   id="path1" />
		<path
   style="fill:#aaaab2"
   d="m 883.498,912.995 c -75.951,66.671 -175.516,107.096 -284.511,107.096 -108.995,0 -208.561,-40.424 -284.511,-107.096 63.888,-101.413 167.52,-167.352 284.511,-167.352 116.991,0 220.623,65.94 284.511,167.352 z"
   id="path2" />
		<circle
   style="fill:#aaaab2"
   cx="598.987"
   cy="499.26901"
   r="174.263"
   id="circle2" />
	</g>

</svg>
